<?xml version="1.0" encoding="iso-8859-1"?>
<!-- Generator: Adobe Illustrator 19.0.0, SVG Export Plug-In . SVG Version: 6.00 Build 0)  -->
<svg version="1.1" id="Layer_1" xmlns="http://www.w3.org/2000/svg" xmlns:xlink="http://www.w3.org/1999/xlink" x="0px" y="0px"
	 viewBox="0 0 512 512" style="enable-background:new 0 0 512 512;" xml:space="preserve">
<g>
	<path style="fill:#38454F;" d="M185.379,384v17.655h141.241V384H476.69V101.517c0-9.754-7.901-17.655-17.655-17.655H52.966
		c-9.754,0-17.655,7.901-17.655,17.655V384H185.379z"/>
	<polygon style="fill:#546A79;" points="52.966,366.345 459.034,366.345 459.034,101.517 52.966,101.517 	"/>
	<g>
		<path style="fill:#E8EDEE;" d="M110.823,299.655c-2.26,0-4.52-0.865-6.241-2.586c-3.452-3.452-3.452-9.039,0-12.482l25.529-25.521
			c3.443-3.443,9.031-3.443,12.482,0c3.443,3.452,3.443,9.039,0,12.482l-25.529,25.521
			C115.343,298.79,113.083,299.655,110.823,299.655"/>
		<path style="fill:#E8EDEE;" d="M206.97,299.655c-2.26,0-4.52-0.865-6.241-2.586l-25.529-25.521c-3.443-3.443-3.443-9.031,0-12.482
			c3.443-3.443,9.039-3.443,12.482,0l25.529,25.521c3.452,3.443,3.452,9.031,0,12.482C211.49,298.79,209.23,299.655,206.97,299.655"
			/>
		<path style="fill:#E8EDEE;" d="M239.414,303.483c-2.26,0-4.52-0.865-6.241-2.586c-3.452-3.452-3.452-9.031,0-12.482l73.49-73.481
			c3.443-3.452,9.031-3.452,12.482,0c3.443,3.443,3.443,9.031,0,12.482l-73.49,73.481
			C243.934,302.618,241.674,303.483,239.414,303.483"/>
		<path style="fill:#E8EDEE;" d="M401.181,282c-2.534,0-5.049-1.086-6.797-3.187l-43.185-52.003
			c-3.107-3.752-2.595-9.313,1.156-12.429c3.752-3.107,9.322-2.595,12.429,1.156l43.185,51.994
			c3.116,3.752,2.595,9.322-1.156,12.438C405.171,281.329,403.167,282,401.181,282"/>
	</g>
	<path style="fill:#B0B6BB;" d="M326.621,384v17.655H185.379V384H0v26.483c0,9.754,7.901,17.655,17.655,17.655h476.69
		c9.754,0,17.655-7.901,17.655-17.655V384H326.621z"/>
	<g>
		<path style="fill:#25AE88;" d="M185.379,251.586c0,14.627-11.855,26.483-26.483,26.483c-14.627,0-26.483-11.855-26.483-26.483
			c0-14.627,11.855-26.483,26.483-26.483C173.524,225.103,185.379,236.959,185.379,251.586"/>
		<path style="fill:#25AE88;" d="M361.931,207.448c0,14.627-11.855,26.483-26.483,26.483s-26.483-11.855-26.483-26.483
			s11.855-26.483,26.483-26.483S361.931,192.821,361.931,207.448"/>
		<path style="fill:#25AE88;" d="M441.379,295.724c0,14.627-11.855,26.483-26.483,26.483s-26.483-11.855-26.483-26.483
			c0-14.627,11.855-26.483,26.483-26.483S441.379,281.097,441.379,295.724"/>
		<path style="fill:#25AE88;" d="M247.172,313.379c0,14.627-11.855,26.483-26.483,26.483s-26.483-11.855-26.483-26.483
			c0-14.627,11.855-26.483,26.483-26.483S247.172,298.752,247.172,313.379"/>
		<path style="fill:#25AE88;" d="M123.586,313.379c0,14.627-11.855,26.483-26.483,26.483s-26.483-11.855-26.483-26.483
			c0-14.627,11.855-26.483,26.483-26.483S123.586,298.752,123.586,313.379"/>
	</g>
	<g>
		<path style="fill:#ECBA16;" d="M167.724,136.828H70.621c-4.873,0-8.828-3.955-8.828-8.828c0-4.873,3.955-8.828,8.828-8.828h97.103
			c4.873,0,8.828,3.955,8.828,8.828C176.552,132.873,172.597,136.828,167.724,136.828"/>
		<path style="fill:#ECBA16;" d="M282.483,136.828h-79.448c-4.873,0-8.828-3.955-8.828-8.828c0-4.873,3.955-8.828,8.828-8.828
			h79.448c4.873,0,8.828,3.955,8.828,8.828C291.31,132.873,287.356,136.828,282.483,136.828"/>
		<path style="fill:#ECBA16;" d="M123.586,172.138H70.621c-4.873,0-8.828-3.955-8.828-8.828c0-4.873,3.955-8.828,8.828-8.828h52.966
			c4.873,0,8.828,3.955,8.828,8.828C132.414,168.183,128.459,172.138,123.586,172.138"/>
		<path style="fill:#ECBA16;" d="M238.345,172.138h-79.448c-4.873,0-8.828-3.955-8.828-8.828c0-4.873,3.955-8.828,8.828-8.828
			h79.448c4.873,0,8.828,3.955,8.828,8.828C247.172,168.183,243.218,172.138,238.345,172.138"/>
		<path style="fill:#ECBA16;" d="M282.483,172.138h-8.828c-4.873,0-8.828-3.955-8.828-8.828c0-4.873,3.955-8.828,8.828-8.828h8.828
			c4.873,0,8.828,3.955,8.828,8.828C291.31,168.183,287.356,172.138,282.483,172.138"/>
	</g>
</g>
<g>
</g>
<g>
</g>
<g>
</g>
<g>
</g>
<g>
</g>
<g>
</g>
<g>
</g>
<g>
</g>
<g>
</g>
<g>
</g>
<g>
</g>
<g>
</g>
<g>
</g>
<g>
</g>
<g>
</g>
</svg>
